<?xml version="1.0" encoding="utf-8"?>
<!-- Generator: Adobe Illustrator 15.1.0, SVG Export Plug-In . SVG Version: 6.00 Build 0)  -->
<!DOCTYPE svg PUBLIC "-//W3C//DTD SVG 1.1//EN" "http://www.w3.org/Graphics/SVG/1.1/DTD/svg11.dtd">
<svg version="1.1" xmlns="http://www.w3.org/2000/svg" xmlns:xlink="http://www.w3.org/1999/xlink" x="0px" y="0px" width="452px"
	 height="452px" viewBox="0 0 452 452" enable-background="new 0 0 452 452" xml:space="preserve">
<g id="Background_xA0_Image_1_">
</g>
<g id="Group_1_1_">
	<g id="QPICKR">
		<g>
			<path fill="#DE1204" d="M178.397,231.668c0,9.782-6.497,16.279-18.249,17.885v0.292c0,4.672,5.767,7.008,11.68,7.008
				c5.329,0,10.73-1.897,11.898-5.621c0.876,1.825,1.241,3.431,1.241,4.892c0,5.912-5.913,9.562-15.622,9.562
				c-9.928,0-19.709-4.964-19.709-14.746v-1.46c-12.045-1.532-17.958-7.956-17.958-17.812V213.2
				c0-11.315,7.373-18.176,23.433-18.176c15.841,0,23.286,6.861,23.286,18.176V231.668z M165.842,214.148
				c0-6.497-1.752-10.22-10.804-10.22s-10.804,3.723-10.804,10.22v16.57c0,6.497,1.752,10.293,10.804,10.293
				s10.804-3.796,10.804-10.293V214.148z"/>
			<path fill="#DE1204" d="M187.159,195.899h16.132c12.336,0,23.287,3.065,23.287,17.665v1.314c0,14.234-10.95,17.957-23.287,17.957
				h-3.577v16.863c0,0-12.556,0-12.556-5.621V195.899z M199.715,204.805v19.126h3.577c6.278,0,10.731-1.095,10.731-9.709
				c0-7.957-4.453-9.417-10.731-9.417H199.715z"/>
			<path fill="#DE1204" d="M233.806,195.169c0,0,12.556,0,12.556,5.621v48.909c0,0-12.556,0-12.556-5.621V195.169z"/>
			<path fill="#DE1204" d="M267.676,214.879v15.037c0,8.176,4.453,10.73,10.877,10.73c6.716,0,14.526-0.803,18.542-8.687
				c7.227,12.118-4.745,17.885-18.542,17.885c-12.482,0-23.433-4.891-23.433-18.833v-17.155c0-13.942,10.95-18.833,23.433-18.833
				c13.797,0,26.937,5.037,18.542,17.884c-3.212-7.446-11.826-8.614-18.542-8.614C272.129,204.294,267.676,206.776,267.676,214.879z
				"/>
			<path fill="#DE1204" d="M320.819,249.699c0,0-12.556,0-12.556-5.621v-48.909c0,0,12.556,0,12.556,5.621v15.914
				c5.475-2.044,10.365-8.249,14.965-16.498c2.263-4.088,6.569-5.183,9.636-5.183c2.263,0,6.204,1.021,6.204,1.021
				c-6.788,10.95-10.949,20.586-19.709,25.039c11.388,4.015,17.154,20.512,21.899,27.448c0,0-4.453,1.021-6.205,1.021
				c-3.065,0-7.957-1.095-10.293-5.183c-3.504-6.132-7.956-15.841-16.497-18.761V249.699z"/>
			<path fill="#DE1204" d="M383.599,225.975c9.198,6.059,11.753,14.745,17.154,22.41c0,0-4.452,1.168-6.204,1.168
				c-3.066,0-7.3-0.949-9.928-5.183c-2.993-4.745-6.716-13.942-13.943-17.082v22.411c0,0-12.556-0.22-12.556-5.621v-48.179h18.323
				c11.825,0,20.366,3.357,20.366,13.869v2.19C396.812,219.624,392.066,225.828,383.599,225.975z M370.678,204.805v13.213h6.352
				c5.328,0,7.227-2.336,7.227-7.154c0-4.745-2.555-6.059-7.811-6.059H370.678z"/>
		</g>
	</g>
	<g id="_xF0D0_">
		<g>
			<path fill="#DE1204" d="M117.362,200.098l-52.393,52.393c-0.489,0.488-1.141,0.733-1.833,0.733s-1.344-0.245-1.833-0.733
				l-8.066-8.067c-0.489-0.488-0.733-1.141-0.733-1.833s0.244-1.345,0.733-1.833l52.393-52.393c0.489-0.489,1.141-0.733,1.833-0.733
				s1.344,0.244,1.833,0.733l8.066,8.066c0.489,0.489,0.733,1.141,0.733,1.833S117.851,199.609,117.362,200.098z"/>
			<polygon fill="#DE1204" points="67.047,195.023 63.054,196.246 61.832,200.238 60.61,196.246 56.617,195.023 60.61,193.801 
				61.832,189.809 63.054,193.801 			"/>
			<polygon fill="#DE1204" points="87.906,199.568 79.921,202.013 77.477,209.998 75.032,202.013 67.047,199.568 75.032,197.124 
				77.477,189.139 79.921,197.124 			"/>
			<polygon fill="#DE1204" points="98.336,189.139 94.343,190.361 93.121,194.354 91.899,190.361 87.906,189.139 91.899,187.917 
				93.121,183.924 94.343,187.917 			"/>
			
				<rect x="100.591" y="193.613" transform="matrix(0.7071 0.7071 -0.7071 0.7071 173.2385 -14.1278)" fill="#FFFFFF" width="6.165" height="16.881"/>
			<polygon fill="#DE1204" points="115.195,223.035 111.203,224.257 109.98,228.25 108.758,224.257 104.766,223.035 
				108.758,221.813 109.98,217.82 111.203,221.813 			"/>
		</g>
	</g>
</g>
</svg>
